<svg width="1985" height="4290" viewBox="0 0 1985 4290" fill="none" xmlns="http://www.w3.org/2000/svg">
<g filter="url(#filter0_f)">
<path d="M51.5 51C96 89 116.269 102.088 155.5 130.5C378.5 292 491.092 311.797 870.5 360.5C1427.5 432 1636.5 547.5 1678 574C1719.5 600.5 1822.62 676 1879.5 795.5C1988.5 1024.5 1918.75 1319.34 1784.5 1477.5C1675 1606.5 1410.12 1693.87 1294 1735.27C1172 1778.77 1006 1817.5 917 1840.77C828.224 1863.98 596 1937.6 523.5 1986.5C437.5 2044.5 296.83 2170.21 259 2354.5C204.5 2620 309 2756 335 2808C361 2860 513.5 3070 796 3184C1078.5 3298 1329.5 3433.5 1419.5 3515.5C1491.5 3581.1 1588.5 3723.67 1626 3796.5C1626 3796.5 1707.66 3954.37 1751 4059.5C1779.59 4128.84 1818 4239.5 1818 4239.5" stroke="#AE5EFF" stroke-width="2"/>
</g>
<g filter="url(#filter1_f)">
<path d="M51.5 51C96 89 116.269 102.088 155.5 130.5C378.5 292 491.092 311.797 870.5 360.5C1427.5 432 1636.5 547.5 1678 574C1719.5 600.5 1822.62 676 1879.5 795.5C1988.5 1024.5 1918.75 1319.34 1784.5 1477.5C1675 1606.5 1410.12 1693.87 1294 1735.27C1172 1778.77 1006 1817.5 917 1840.77C828.224 1863.98 596 1937.6 523.5 1986.5C437.5 2044.5 296.83 2170.21 259 2354.5C204.5 2620 309 2756 335 2808C361 2860 513.5 3070 796 3184C1078.5 3298 1329.5 3433.5 1419.5 3515.5C1491.5 3581.1 1588.5 3723.67 1626 3796.5C1626 3796.5 1707.66 3954.37 1751 4059.5C1779.59 4128.84 1818 4239.5 1818 4239.5" stroke="#AE5EFF" stroke-width="2"/>
</g>
<g filter="url(#filter2_f)">
<path d="M51.5 51C96 89 116.269 102.088 155.5 130.5C378.5 292 491.092 311.797 870.5 360.5C1427.5 432 1636.5 547.5 1678 574C1719.5 600.5 1822.62 676 1879.5 795.5C1988.5 1024.5 1918.75 1319.34 1784.5 1477.5C1675 1606.5 1410.12 1693.87 1294 1735.27C1172 1778.77 1006 1817.5 917 1840.77C828.224 1863.98 596 1937.6 523.5 1986.5C437.5 2044.5 296.83 2170.21 259 2354.5C204.5 2620 309 2756 335 2808C361 2860 513.5 3070 796 3184C1078.5 3298 1329.5 3433.5 1419.5 3515.5C1491.5 3581.1 1588.5 3723.67 1626 3796.5C1626 3796.5 1707.66 3954.37 1751 4059.5C1779.59 4128.84 1818 4239.5 1818 4239.5" stroke="#AE5EFF" stroke-width="2"/>
</g>
<g filter="url(#filter3_f)">
<path d="M51.5 51C96 89 116.269 102.088 155.5 130.5C378.5 292 491.092 311.797 870.5 360.5C1427.5 432 1636.5 547.5 1678 574C1719.5 600.5 1822.62 676 1879.5 795.5C1988.5 1024.5 1918.75 1319.34 1784.5 1477.5C1675 1606.5 1410.12 1693.87 1294 1735.27C1172 1778.77 1006 1817.5 917 1840.77C828.224 1863.98 596 1937.6 523.5 1986.5C437.5 2044.5 296.83 2170.21 259 2354.5C204.5 2620 309 2756 335 2808C361 2860 513.5 3070 796 3184C1078.5 3298 1329.5 3433.5 1419.5 3515.5C1491.5 3581.1 1588.5 3723.67 1626 3796.5C1626 3796.5 1707.66 3954.37 1751 4059.5C1779.59 4128.84 1818 4239.5 1818 4239.5" stroke="#AE5EFF" stroke-width="2"/>
</g>
<path d="M51.5 51C96 89 116.269 102.088 155.5 130.5C378.5 292 491.092 311.797 870.5 360.5C1427.5 432 1636.5 547.5 1678 574C1719.5 600.5 1822.62 676 1879.5 795.5C1988.5 1024.5 1918.75 1319.34 1784.5 1477.5C1675 1606.5 1410.12 1693.87 1294 1735.27C1172 1778.77 1006 1817.5 917 1840.77C828.224 1863.98 596 1937.6 523.5 1986.5C437.5 2044.5 296.83 2170.21 259 2354.5C204.5 2620 309 2756 335 2808C361 2860 513.5 3070 796 3184C1078.5 3298 1329.5 3433.5 1419.5 3515.5C1491.5 3581.1 1588.5 3723.67 1626 3796.5C1626 3796.5 1707.66 3954.37 1751 4059.5C1779.59 4128.84 1818 4239.5 1818 4239.5" stroke="#F3E8FF" stroke-width="2"/>
<defs>
<filter id="filter0_f" x="0.850586" y="0.239502" width="1983.33" height="4289.59" filterUnits="userSpaceOnUse" color-interpolation-filters="sRGB">
<feFlood flood-opacity="0" result="BackgroundImageFix"/>
<feBlend mode="normal" in="SourceGraphic" in2="BackgroundImageFix" result="shape"/>
<feGaussianBlur stdDeviation="25" result="effect1_foregroundBlur"/>
</filter>
<filter id="filter1_f" x="25.8506" y="25.2395" width="1933.33" height="4239.59" filterUnits="userSpaceOnUse" color-interpolation-filters="sRGB">
<feFlood flood-opacity="0" result="BackgroundImageFix"/>
<feBlend mode="normal" in="SourceGraphic" in2="BackgroundImageFix" result="shape"/>
<feGaussianBlur stdDeviation="12.5" result="effect1_foregroundBlur"/>
</filter>
<filter id="filter2_f" x="35.8506" y="35.2395" width="1913.33" height="4219.59" filterUnits="userSpaceOnUse" color-interpolation-filters="sRGB">
<feFlood flood-opacity="0" result="BackgroundImageFix"/>
<feBlend mode="normal" in="SourceGraphic" in2="BackgroundImageFix" result="shape"/>
<feGaussianBlur stdDeviation="7.5" result="effect1_foregroundBlur"/>
</filter>
<filter id="filter3_f" x="40.8506" y="40.2395" width="1903.33" height="4209.59" filterUnits="userSpaceOnUse" color-interpolation-filters="sRGB">
<feFlood flood-opacity="0" result="BackgroundImageFix"/>
<feBlend mode="normal" in="SourceGraphic" in2="BackgroundImageFix" result="shape"/>
<feGaussianBlur stdDeviation="5" result="effect1_foregroundBlur"/>
</filter>
</defs>
</svg>
