<svg width="2058" height="4105" viewBox="0 0 2058 4105" fill="none" xmlns="http://www.w3.org/2000/svg">
<g filter="url(#filter0_f)">
<path d="M51 51.5C135 93.5 223.02 138.709 340 185C722 336.163 1304 242.769 1525.5 287.5C1713.24 325.414 1880.4 462.702 1931 551C1982 640 2019.5 788.5 2001.5 914C1990.28 992.2 1961.5 1178 1709.5 1349C1528.03 1472.14 1324.5 1510 1130.41 1574.27C1042.08 1603.51 839 1645 645 1803C551.085 1879.49 485.501 1943 418.501 2032.5C300.025 2190.76 252.5 2347 270.5 2496C285.663 2621.52 403.5 2912.64 783.907 2996.27C1146.18 3075.91 1308.5 3148.5 1436.41 3247.27C1587.59 3364.01 1653.94 3468.54 1758.5 3633.5C1797.8 3695.5 1819.28 3730.54 1854 3799C1888.8 3867.63 1905.92 3911.3 1935.5 3980.5C1948.4 4010.68 1966.5 4054 1966.5 4054" stroke="#868BFE" stroke-width="2"/>
</g>
<g filter="url(#filter1_f)">
<path d="M51 51.5C135 93.5 223.02 138.709 340 185C722 336.163 1304 242.769 1525.5 287.5C1713.24 325.414 1880.4 462.702 1931 551C1982 640 2019.5 788.5 2001.5 914C1990.28 992.2 1961.5 1178 1709.5 1349C1528.03 1472.14 1324.5 1510 1130.41 1574.27C1042.08 1603.51 839 1645 645 1803C551.085 1879.49 485.501 1943 418.501 2032.5C300.025 2190.76 252.5 2347 270.5 2496C285.663 2621.52 403.5 2912.64 783.907 2996.27C1146.18 3075.91 1308.5 3148.5 1436.41 3247.27C1587.59 3364.01 1653.94 3468.54 1758.5 3633.5C1797.8 3695.5 1819.28 3730.54 1854 3799C1888.8 3867.63 1905.92 3911.3 1935.5 3980.5C1948.4 4010.68 1966.5 4054 1966.5 4054" stroke="#868BFE" stroke-width="2"/>
</g>
<g filter="url(#filter2_f)">
<path d="M51 51.5C135 93.5 223.02 138.709 340 185C722 336.163 1304 242.769 1525.5 287.5C1713.24 325.414 1880.4 462.702 1931 551C1982 640 2019.5 788.5 2001.5 914C1990.28 992.2 1961.5 1178 1709.5 1349C1528.03 1472.14 1324.5 1510 1130.41 1574.27C1042.08 1603.51 839 1645 645 1803C551.085 1879.49 485.501 1943 418.501 2032.5C300.025 2190.76 252.5 2347 270.5 2496C285.663 2621.52 403.5 2912.64 783.907 2996.27C1146.18 3075.91 1308.5 3148.5 1436.41 3247.27C1587.59 3364.01 1653.94 3468.54 1758.5 3633.5C1797.8 3695.5 1819.28 3730.54 1854 3799C1888.8 3867.63 1905.92 3911.3 1935.5 3980.5C1948.4 4010.68 1966.5 4054 1966.5 4054" stroke="#868BFE" stroke-width="2"/>
</g>
<g filter="url(#filter3_f)">
<path d="M51 51.5C135 93.5 223.02 138.709 340 185C722 336.163 1304 242.769 1525.5 287.5C1713.24 325.414 1880.4 462.702 1931 551C1982 640 2019.5 788.5 2001.5 914C1990.28 992.2 1961.5 1178 1709.5 1349C1528.03 1472.14 1324.5 1510 1130.41 1574.27C1042.08 1603.51 839 1645 645 1803C551.085 1879.49 485.501 1943 418.501 2032.5C300.025 2190.76 252.5 2347 270.5 2496C285.663 2621.52 403.5 2912.64 783.907 2996.27C1146.18 3075.91 1308.5 3148.5 1436.41 3247.27C1587.59 3364.01 1653.94 3468.54 1758.5 3633.5C1797.8 3695.5 1819.28 3730.54 1854 3799C1888.8 3867.63 1905.92 3911.3 1935.5 3980.5C1948.4 4010.68 1966.5 4054 1966.5 4054" stroke="#868BFE" stroke-width="2"/>
</g>
<path d="M51 51.5C135 93.5 223.02 138.709 340 185C722 336.163 1304 242.769 1525.5 287.5C1713.24 325.414 1880.4 462.702 1931 551C1982 640 2019.5 788.5 2001.5 914C1990.28 992.2 1961.5 1178 1709.5 1349C1528.03 1472.14 1324.5 1510 1130.41 1574.27C1042.08 1603.51 839 1645 645 1803C551.085 1879.49 485.501 1943 418.501 2032.5C300.025 2190.76 252.5 2347 270.5 2496C285.663 2621.52 403.5 2912.64 783.907 2996.27C1146.18 3075.91 1308.5 3148.5 1436.41 3247.27C1587.59 3364.01 1653.94 3468.54 1758.5 3633.5C1797.8 3695.5 1819.28 3730.54 1854 3799C1888.8 3867.63 1905.92 3911.3 1935.5 3980.5C1948.4 4010.68 1966.5 4054 1966.5 4054" stroke="#E8F7FF" stroke-width="2"/>
<defs>
<filter id="filter0_f" x="0.552734" y="0.605591" width="2056.52" height="4103.78" filterUnits="userSpaceOnUse" color-interpolation-filters="sRGB">
<feFlood flood-opacity="0" result="BackgroundImageFix"/>
<feBlend mode="normal" in="SourceGraphic" in2="BackgroundImageFix" result="shape"/>
<feGaussianBlur stdDeviation="25" result="effect1_foregroundBlur"/>
</filter>
<filter id="filter1_f" x="25.5527" y="25.6056" width="2006.52" height="4053.78" filterUnits="userSpaceOnUse" color-interpolation-filters="sRGB">
<feFlood flood-opacity="0" result="BackgroundImageFix"/>
<feBlend mode="normal" in="SourceGraphic" in2="BackgroundImageFix" result="shape"/>
<feGaussianBlur stdDeviation="12.5" result="effect1_foregroundBlur"/>
</filter>
<filter id="filter2_f" x="35.5527" y="35.6056" width="1986.52" height="4033.78" filterUnits="userSpaceOnUse" color-interpolation-filters="sRGB">
<feFlood flood-opacity="0" result="BackgroundImageFix"/>
<feBlend mode="normal" in="SourceGraphic" in2="BackgroundImageFix" result="shape"/>
<feGaussianBlur stdDeviation="7.5" result="effect1_foregroundBlur"/>
</filter>
<filter id="filter3_f" x="40.5527" y="40.6056" width="1976.52" height="4023.78" filterUnits="userSpaceOnUse" color-interpolation-filters="sRGB">
<feFlood flood-opacity="0" result="BackgroundImageFix"/>
<feBlend mode="normal" in="SourceGraphic" in2="BackgroundImageFix" result="shape"/>
<feGaussianBlur stdDeviation="5" result="effect1_foregroundBlur"/>
</filter>
</defs>
</svg>
